<?xml version="1.0" encoding="UTF-8" standalone="no"?>
<!-- Created with Inkscape (http://www.inkscape.org/) -->

<svg
     xmlns:dc="http://purl.org/dc/elements/1.1/"
     xmlns:cc="http://creativecommons.org/ns#"
     xmlns:rdf="http://www.w3.org/1999/02/22-rdf-syntax-ns#"
     xmlns:svg="http://www.w3.org/2000/svg"
     xmlns="http://www.w3.org/2000/svg"
     xmlns:xlink="http://www.w3.org/1999/xlink"
     xmlns:sodipodi="http://sodipodi.sourceforge.net/DTD/sodipodi-0.dtd"
     xmlns:inkscape="http://www.inkscape.org/namespaces/inkscape"
     width="566.6875"
     height="628.43402"
     id="svg4215"
     version="1.1"
     inkscape:version="0.48.5 r10040"
     sodipodi:docname="New document 5">
    <defs
         id="defs4217">
        <linearGradient
             inkscape:collect="always"
             xlink:href="#linearGradient114"
             id="linearGradient5111"
             gradientUnits="userSpaceOnUse"
             gradientTransform="matrix(1,0,0,-1,20,451.20143)"
             x1="576.07825"
             y1="-100.37419"
             x2="566.68109"
             y2="937.16205" />
        <linearGradient
             id="linearGradient114"
             y2="-23.204"
             gradientUnits="userSpaceOnUse"
             x2="9.9399004"
             gradientTransform="matrix(0.08888,-0.79504,-0.79504,-0.08888,-0.0066402,21.864)"
             y1="-23.204"
             x1="6.1162">
            <stop
                 id="stop116"
                 style="stop-color:#98412f"
                 offset="0" />
            <stop
                 id="stop118"
                 style="stop-color:#cf6d5b"
                 offset=".49020" />
            <stop
                 id="stop120"
                 style="stop-color:#762917"
                 offset=".78040" />
            <stop
                 id="stop122"
                 style="stop-color:#591c0d"
                 offset="1" />
        </linearGradient>
        <radialGradient
             inkscape:collect="always"
             xlink:href="#radialGradient178"
             id="radialGradient5124"
             gradientUnits="userSpaceOnUse"
             gradientTransform="matrix(7.8727904,13.587145,13.986587,-8.1069169,863.9907,-490.98996)"
             cx="-1.1748"
             cy="-22.466999"
             r="16.822001" />
        <radialGradient
             id="radialGradient178"
             gradientUnits="userSpaceOnUse"
             cy="-22.466999"
             cx="-1.1748"
             gradientTransform="matrix(-0.33008,-0.72872,0.75032,-0.33984,33.222,6.813)"
             r="16.822001">
            <stop
                 id="stop180"
                 style="stop-color:#f28c79"
                 offset="0" />
            <stop
                 id="stop182"
                 style="stop-color:#af503e"
                 offset=".27060" />
            <stop
                 id="stop184"
                 style="stop-color:#6b2210"
                 offset=".7608" />
            <stop
                 id="stop186"
                 style="stop-color:#9e423a"
                 offset="1" />
        </radialGradient>
        <radialGradient
             inkscape:collect="always"
             xlink:href="#radialGradient178-9"
             id="radialGradient5126"
             gradientUnits="userSpaceOnUse"
             gradientTransform="matrix(-5.763282,15.941836,-16.40914,-5.9362372,275.9873,-457.16948)"
             cx="-1.1748"
             cy="-22.466999"
             r="16.822001" />
        <radialGradient
             id="radialGradient178-9"
             gradientUnits="userSpaceOnUse"
             cy="-22.466999"
             cx="-1.1748"
             gradientTransform="matrix(-0.33008,-0.72872,0.75032,-0.33984,33.222,6.813)"
             r="16.822001">
            <stop
                 id="stop180-8"
                 style="stop-color:#f28c79"
                 offset="0" />
            <stop
                 id="stop182-1"
                 style="stop-color:#af503e"
                 offset=".27060" />
            <stop
                 id="stop184-0"
                 style="stop-color:#6b2210"
                 offset=".7608" />
            <stop
                 id="stop186-7"
                 style="stop-color:#9e423a"
                 offset="1" />
        </radialGradient>
        <linearGradient
             inkscape:collect="always"
             xlink:href="#linearGradient114"
             id="linearGradient5128"
             gradientUnits="userSpaceOnUse"
             gradientTransform="matrix(2.2420463,20.145017,-20.055317,2.2520743,174.05278,-197.04323)"
             x1="6.1162"
             y1="-23.204"
             x2="9.9399004"
             y2="-23.204" />
        <linearGradient
             id="linearGradient5195"
             y2="-23.204"
             gradientUnits="userSpaceOnUse"
             x2="9.9399004"
             gradientTransform="matrix(0.08888,-0.79504,-0.79504,-0.08888,-0.0066402,21.864)"
             y1="-23.204"
             x1="6.1162">
            <stop
                 id="stop5197"
                 style="stop-color:#98412f"
                 offset="0" />
            <stop
                 id="stop5199"
                 style="stop-color:#cf6d5b"
                 offset=".49020" />
            <stop
                 id="stop5201"
                 style="stop-color:#762917"
                 offset=".78040" />
            <stop
                 id="stop5203"
                 style="stop-color:#591c0d"
                 offset="1" />
        </linearGradient>
        <linearGradient
             inkscape:collect="always"
             xlink:href="#linearGradient136"
             id="linearGradient5130"
             gradientUnits="userSpaceOnUse"
             gradientTransform="matrix(20.180435,0,0,20.270695,174.06176,-197.04323)"
             x1="19.9"
             y1="5.6553001"
             x2="26.299999"
             y2="5.6553001" />
        <linearGradient
             id="linearGradient136"
             y2="5.6553001"
             gradientUnits="userSpaceOnUse"
             x2="26.299999"
             gradientTransform="matrix(0.8,0,0,-0.8,-0.0062844,21.864)"
             y1="5.6553001"
             x1="19.9">
            <stop
                 id="stop138"
                 style="stop-color:#591c0d"
                 offset="0" />
            <stop
                 id="stop140"
                 style="stop-color:#a44b39"
                 offset=".78040" />
            <stop
                 id="stop142"
                 style="stop-color:#c05f4d"
                 offset="1" />
        </linearGradient>
        <linearGradient
             inkscape:collect="always"
             xlink:href="#linearGradient156"
             id="linearGradient5132"
             gradientUnits="userSpaceOnUse"
             gradientTransform="matrix(-0.06255935,20.270695,-20.180435,-0.06283915,174.07053,-197.04322)"
             x1="4.9165001"
             y1="-18.885"
             x2="8.9666004"
             y2="-18.885" />
        <linearGradient
             id="linearGradient156"
             y2="-18.885"
             gradientUnits="userSpaceOnUse"
             x2="8.9666004"
             gradientTransform="matrix(-0.00248,-0.8,-0.8,0.00248,-0.0059369,21.864)"
             y1="-18.885"
             x1="4.9165001">
            <stop
                 id="stop158"
                 style="stop-color:#98412f"
                 offset="0" />
            <stop
                 id="stop160"
                 style="stop-color:#cf6d5b"
                 offset=".49020" />
            <stop
                 id="stop162"
                 style="stop-color:#762917"
                 offset=".78040" />
            <stop
                 id="stop164"
                 style="stop-color:#591c0d"
                 offset="1" />
        </linearGradient>
        <linearGradient
             inkscape:collect="always"
             xlink:href="#linearGradient200"
             id="linearGradient5134"
             gradientUnits="userSpaceOnUse"
             gradientTransform="matrix(4.4598762,19.770009,-19.681978,4.4798237,174.05571,-197.04323)"
             x1="1.3085999"
             y1="-17.183001"
             x2="8.4348001"
             y2="-17.183001" />
        <linearGradient
             id="linearGradient200"
             y2="-17.183001"
             gradientUnits="userSpaceOnUse"
             x2="8.4348001"
             gradientTransform="matrix(0.1768,-0.78024,-0.78024,-0.1768,-0.0065238,21.864)"
             y1="-17.183001"
             x1="1.3085999">
            <stop
                 id="stop202"
                 style="stop-color:#98412f"
                 offset="0" />
            <stop
                 id="stop204"
                 style="stop-color:#cf6d5b"
                 offset=".49020" />
            <stop
                 id="stop206"
                 style="stop-color:#762917"
                 offset=".78040" />
            <stop
                 id="stop208"
                 style="stop-color:#591c0d"
                 offset="1" />
        </linearGradient>
        <linearGradient
             inkscape:collect="always"
             xlink:href="#linearGradient222"
             id="linearGradient5136"
             gradientUnits="userSpaceOnUse"
             gradientTransform="matrix(-5.1419749,19.601762,-19.51448,-5.1649732,174.05137,-197.04323)"
             x1="0.021"
             y1="-14.34"
             x2="3.8473001"
             y2="-14.34" />
        <linearGradient
             id="linearGradient222"
             y2="-14.34"
             gradientUnits="userSpaceOnUse"
             x2="3.8473001"
             gradientTransform="matrix(-0.20384,-0.7736,-0.7736,0.20384,-0.0066956,21.864)"
             y1="-14.34"
             x1="0.021">
            <stop
                 id="stop224"
                 style="stop-color:#98412f"
                 offset="0" />
            <stop
                 id="stop226"
                 style="stop-color:#cf6d5b"
                 offset=".49020" />
            <stop
                 id="stop228"
                 style="stop-color:#762917"
                 offset=".78040" />
            <stop
                 id="stop230"
                 style="stop-color:#591c0d"
                 offset="1" />
        </linearGradient>
        <linearGradient
             inkscape:collect="always"
             xlink:href="#linearGradient244"
             id="linearGradient5138"
             gradientUnits="userSpaceOnUse"
             gradientTransform="matrix(20.180435,0,0,20.270695,174.06176,-197.04323)"
             x1="9.8374004"
             y1="6.0249"
             x2="17.761999"
             y2="6.0249" />
        <linearGradient
             id="linearGradient244"
             y2="6.0249"
             gradientUnits="userSpaceOnUse"
             x2="17.761999"
             gradientTransform="matrix(0.8,0,0,-0.8,-0.0062844,21.864)"
             y1="6.0249"
             x1="9.8374004">
            <stop
                 id="stop246"
                 style="stop-color:#591c0d"
                 offset="0" />
            <stop
                 id="stop248"
                 style="stop-color:#a44b39"
                 offset=".78040" />
            <stop
                 id="stop250"
                 style="stop-color:#c05f4d"
                 offset="1" />
        </linearGradient>
    </defs>
    <sodipodi:namedview
         id="base"
         pagecolor="#ffffff"
         bordercolor="#666666"
         borderopacity="1.0"
         inkscape:pageopacity="0.0"
         inkscape:pageshadow="2"
         inkscape:zoom="0.35"
         inkscape:cx="264.0577"
         inkscape:cy="194.22312"
         inkscape:document-units="px"
         inkscape:current-layer="layer1"
         showgrid="false"
         fit-margin-top="0"
         fit-margin-left="0"
         fit-margin-right="0"
         fit-margin-bottom="0" />
    <metadata
         id="metadata4220">
        <rdf:RDF>
            <cc:Work
                 rdf:about="">
                <dc:format>image/svg+xml</dc:format>
                <dc:type
                     rdf:resource="http://purl.org/dc/dcmitype/StillImage" />
                <dc:title></dc:title>
            </cc:Work>
        </rdf:RDF>
    </metadata>
    <g
         inkscape:label="Layer 1"
         inkscape:groupmode="layer"
         id="layer1"
         transform="translate(-110.9423,-98.151305)">
        <g
             transform="translate(-157.46395,276.4603)"
             id="g5147">
            <g
                 id="g5140">
                <rect
                     style="fill:#decd87;fill-opacity:1;stroke:#000000;stroke-width:4;stroke-miterlimit:4;stroke-opacity:1;stroke-dasharray:none"
                     id="rect3110"
                     width="531.42108"
                     height="367.67792"
                     x="286.78342"
                     y="78.999008"
                     ry="2"
                     rx="2" />
                <rect
                     y="62.999008"
                     x="286.78342"
                     height="49.122974"
                     width="531.42102"
                     id="use3884"
                     style="opacity:0.1;fill:#000000;fill-opacity:1;stroke:none" />
                <path
                     style="fill:#bcab2e;fill-opacity:1;stroke:none"
                     d="M 302.0722,82.828805 457.16408,443.30654 462.46292,443.30654 307.37105,82.828805 302.0722,82.828805 z M 319.797,82.828805 474.91985,443.30654 480.21869,443.30654 325.12681,82.828805 319.797,82.828805 z M 337.58374,82.828805 492.67562,443.30654 497.97447,443.30654 342.85161,82.828805 337.58374,82.828805 z M 355.33953,82.828805 510.4314,443.30654 515.73024,443.30654 360.63836,82.828805 355.33953,82.828805 z M 373.09529,82.828805 528.18717,443.30654 533.48601,443.30654 378.39414,82.828805 373.09529,82.828805 z M 390.85107,82.828805 545.94294,443.30654 551.24178,443.30654 396.14991,82.828805 390.85107,82.828805 z M 408.57586,82.828805 563.69872,443.30654 568.99756,443.30654 413.90568,82.828805 408.57586,82.828805 z M 426.36261,82.828805 581.45449,443.30654 586.75334,443.30654 431.63047,82.828805 426.36261,82.828805 z M 444.11839,82.828805 599.21027,443.30654 604.50911,443.30654 449.41723,82.828805 444.11839,82.828805 z M 461.87416,82.828805 616.96604,443.30654 622.26488,443.30654 467.17301,82.828805 461.87416,82.828805 z M 479.62994,82.828805 634.72181,443.30654 640.02065,443.30654 484.92877,82.828805 479.62994,82.828805 z M 497.35472,82.828805 652.47758,443.30654 657.77643,443.30654 502.68455,82.828805 497.35472,82.828805 z M 515.11049,82.828805 670.20237,443.30654 675.53221,443.30654 520.40934,82.828805 515.11049,82.828805 z M 532.89726,82.828805 687.95814,443.30654 693.28797,443.30654 538.1961,82.828805 532.89726,82.828805 z M 550.65303,82.828805 705.7449,443.30654 711.04375,443.30654 555.95187,82.828805 550.65303,82.828805 z M 568.4088,82.828805 723.50068,443.30654 728.79951,443.30654 573.70764,82.828805 568.4088,82.828805 z M 586.13358,82.828805 741.25644,443.30654 746.5553,443.30654 591.46342,82.828805 586.13358,82.828805 z M 603.88936,82.828805 758.98123,443.30654 764.31106,443.30654 609.18819,82.828805 603.88936,82.828805 z M 621.67613,82.828805 776.737,443.30654 782.03585,443.30654 626.94397,82.828805 621.67613,82.828805 z M 639.43189,82.828805 794.52377,443.30654 799.79163,443.30654 644.73074,82.828805 639.43189,82.828805 z M 657.18767,82.828805 812.27954,443.30654 813.05422,443.30654 C 814.15292,443.30654 815.03742,442.43204 815.03742,441.34575 L 815.03742,437.39356 662.4865,82.828805 657.18767,82.828805 z M 674.91245,82.828805 815.03742,408.50264 815.03742,396.15583 680.24229,82.828805 674.91245,82.828805 z M 692.66823,82.828805 815.03742,367.23428 815.03742,354.91811 697.96706,82.828805 692.66823,82.828805 z M 710.45498,82.828805 815.03742,325.96592 815.03742,313.64975 715.72285,82.828805 710.45498,82.828805 z M 728.21076,82.828805 815.03742,284.63628 815.03742,272.38139 733.5096,82.828805 728.21076,82.828805 z M 745.96653,82.828805 815.03742,243.39856 815.03742,231.08239 751.26537,82.828805 745.96653,82.828805 z M 763.69132,82.828805 815.03742,202.16084 815.03742,189.81404 769.02115,82.828805 763.69132,82.828805 z M 781.44709,82.828805 815.03742,160.89248 815.03742,148.57631 786.74593,82.828805 781.44709,82.828805 z M 799.20286,82.828805 815.03742,119.65476 815.03742,107.30796 804.50171,82.828805 799.20286,82.828805 z M 289.64626,82.859442 C 288.75552,83.052531 288.09689,83.849285 288.09689,84.789588 L 288.09689,91.65233 439.4083,443.30654 444.70715,443.30654 289.64626,82.859442 z M 288.09689,120.54324 288.09689,132.89005 421.65254,443.30654 426.95137,443.30654 288.09689,120.54324 z M 288.09689,161.84223 288.09689,174.1584 403.89675,443.30654 409.19561,443.30654 288.09689,161.84223 z M 288.09689,203.14123 288.09689,215.4574 386.14099,443.30654 391.43982,443.30654 288.09689,203.14123 z M 288.09689,244.37896 288.09689,256.72577 368.38521,443.30654 373.68406,443.30654 288.09689,244.37896 z M 288.09689,285.64732 288.09689,297.96349 350.62945,443.30654 355.92828,443.30654 288.09689,285.64732 z M 288.09689,326.88503 288.09689,339.23185 332.87367,443.30654 338.17252,443.30654 288.09689,326.88503 z M 288.09689,368.18403 288.09689,380.46957 315.11789,443.30654 320.41674,443.30654 288.09689,368.18403 z M 288.09689,409.48303 288.09689,421.76857 297.36212,443.30654 302.66096,443.30654 288.09689,409.48303 z"
                     id="rect3110-1-0"
                     inkscape:connector-curvature="0" />
                <rect
                     rx="2"
                     ry="2"
                     y="-35.312218"
                     x="270.40912"
                     height="136.94879"
                     width="562.68109"
                     id="use3880"
                     style="fill:#decd87;fill-opacity:1;stroke:#000000;stroke-width:4;stroke-miterlimit:4;stroke-opacity:1;stroke-dasharray:none" />
                <path
                     style="fill:#bcab2e;fill-opacity:1;stroke:none"
                     d="M 275.79584,-30.903874 333.27535,100.07933 338.54841,100.07933 281.06891,-30.903874 275.79584,-30.903874 z M 293.46524,-30.903874 350.94474,100.07933 356.21781,100.07933 298.7383,-30.903874 293.46524,-30.903874 z M 311.13463,-30.903874 368.61414,100.07933 373.88721,100.07933 316.4077,-30.903874 311.13463,-30.903874 z M 328.80403,-30.903874 386.28354,100.07933 391.5566,100.07933 334.0771,-30.903874 328.80403,-30.903874 z M 346.47343,-30.903874 403.95294,100.07933 409.226,100.07933 351.7465,-30.903874 346.47343,-30.903874 z M 364.14283,-30.903874 421.62233,100.07933 426.8954,100.07933 369.41589,-30.903874 364.14283,-30.903874 z M 381.81222,-30.903874 439.29173,100.07933 444.5648,100.07933 387.08529,-30.903874 381.81222,-30.903874 z M 399.45079,-30.903874 456.93029,100.07933 462.23419,100.07933 404.75469,-30.903874 399.45079,-30.903874 z M 417.15102,-30.903874 474.63053,100.07933 479.87276,100.07933 422.39325,-30.903874 417.15102,-30.903874 z M 434.82042,-30.903874 492.29992,100.07933 497.57299,100.07933 440.09348,-30.903874 434.82042,-30.903874 z M 452.48981,-30.903874 509.96932,100.07933 515.24239,100.07933 457.76288,-30.903874 452.48981,-30.903874 z M 470.15921,-30.903874 527.63872,100.07933 532.91178,100.07933 475.43228,-30.903874 470.15921,-30.903874 z M 487.79777,-30.903874 545.27728,100.07933 550.58118,100.07933 493.10168,-30.903874 487.79777,-30.903874 z M 505.49801,-30.903874 562.94668,100.07933 568.21974,100.07933 510.74024,-30.903874 505.49801,-30.903874 z M 523.1674,-30.903874 580.64691,100.07933 585.88914,100.07933 528.44047,-30.903874 523.1674,-30.903874 z M 540.8368,-30.903874 598.31631,100.07933 603.58937,100.07933 546.10987,-30.903874 540.8368,-30.903874 z M 558.5062,-30.903874 615.98571,100.07933 621.25877,100.07933 563.77927,-30.903874 558.5062,-30.903874 z M 576.14476,-30.903874 633.62427,100.07933 638.92817,100.07933 581.44866,-30.903874 576.14476,-30.903874 z M 593.845,-30.903874 651.29366,100.07933 656.56673,100.07933 599.08722,-30.903874 593.845,-30.903874 z M 611.48356,-30.903874 668.96306,100.07933 674.23613,100.07933 616.78746,-30.903874 611.48356,-30.903874 z M 629.18379,-30.903874 686.6633,100.07933 691.93636,100.07933 634.45686,-30.903874 629.18379,-30.903874 z M 646.85319,-30.903874 704.33269,100.07933 709.60576,100.07933 652.12625,-30.903874 646.85319,-30.903874 z M 664.49175,-30.903874 721.97125,100.07933 727.27516,100.07933 669.79565,-30.903874 664.49175,-30.903874 z M 682.16115,-30.903874 739.64065,100.07933 744.91372,100.07933 687.43421,-30.903874 682.16115,-30.903874 z M 699.83054,-30.903874 757.31005,100.07933 762.58312,100.07933 705.10361,-30.903874 699.83054,-30.903874 z M 717.49994,-30.903874 775.01028,100.07933 780.25251,100.07933 722.77301,-30.903874 717.49994,-30.903874 z M 735.16934,-30.903874 792.64885,100.07933 797.95275,100.07933 740.44241,-30.903874 735.16934,-30.903874 z M 752.83874,-30.903874 810.31824,100.07933 815.59131,100.07933 758.1118,-30.903874 752.83874,-30.903874 z M 770.50813,-30.903874 827.67927,99.391832 C 827.97294,99.058026 828.17266,98.641386 828.17266,98.166293 L 828.17266,88.481547 775.7812,-30.903874 770.50813,-30.903874 z M 788.17753,-30.903874 828.17266,60.23437 828.17266,48.218111 793.4506,-30.903874 788.17753,-30.903874 z M 805.84693,-30.903874 828.17266,19.941044 828.17266,7.9247844 811.12,-30.903874 805.84693,-30.903874 z M 823.51633,-30.903874 828.17266,-20.322392 828.17266,-28.990838 C 828.17266,-30.05066 827.29246,-30.903874 826.19911,-30.903874 L 823.51633,-30.903874 z M 272.92803,-9.2028686 272.92803,2.8432818 315.60595,100.07933 320.87901,100.07933 272.92803,-9.2028686 z M 272.92803,31.060567 272.92803,43.076826 297.93655,100.07933 303.20962,100.07933 272.92803,31.060567 z M 272.92803,71.353894 272.92803,83.370153 280.26715,100.07933 285.54022,100.07933 272.92803,71.353894 z"
                     id="rect3110-1-0-5-3"
                     inkscape:connector-curvature="0" />
            </g>
            <path
                 sodipodi:nodetypes="sssssssss"
                 inkscape:connector-curvature="0"
                 id="use3888"
                 d="M 491.60382,448.11969 615.42975,448.11969 C 616.53775,448.11969 617.42975,447.22769 617.42975,446.11969 L 617.42975,-57.483795 C 617.42975,-58.591795 616.53775,-59.483795 615.42975,-59.483795 L 491.60382,-59.483795 C 490.49582,-59.483795 489.60382,-58.591795 489.60382,-57.483795 L 489.60382,446.11969 C 489.60382,447.22769 490.49582,448.11969 491.60382,448.11969 z"
                 style="fill:url(#linearGradient5111);fill-opacity:1;stroke:#000000;stroke-width:4;stroke-miterlimit:4;stroke-opacity:1" />
            <g
                 transform="matrix(0.95099375,0,0,0.95099375,54.422629,250.56307)"
                 id="g5113">
                <path
                     style="fill:url(#radialGradient5124);fill-rule:evenodd;stroke:#000000;stroke-width:4.20612621;stroke-miterlimit:4;stroke-opacity:1;stroke-dasharray:none"
                     d="M 548.48894,-307.54699 549.42434,-308.85675 C 555.66184,-318.53619 558.41094,-327.78911 557.7013,-336.69081 557.96588,-341.68813 556.87756,-345.93935 554.44316,-349.65667 561.27852,-351.18975 568.23251,-352.34858 575.17965,-353.12635 614.69517,-357.12216 651.34526,-348.93283 685.11167,-328.6679 729.86587,-301.22814 761.09309,-272.13926 779.0192,-241.31229 788.22065,-226.36771 792.67885,-214.13655 792.43941,-204.68268 788.59988,-184.91945 785.83942,-172.10449 784.25385,-166.16938 L 777.5373,-148.72698 C 773.86161,-166.14027 764.43878,-186.71882 749.26881,-210.46269 718.02766,-260.40347 676.79378,-291.45528 625.65384,-303.60443 597.95865,-309.81034 572.29178,-311.18993 548.48894,-307.54699 z"
                     id="path4067"
                     inkscape:connector-curvature="0"
                     inkscape:transform-center-y="72.562583"
                     inkscape:transform-center-x="-27.07542" />
                <path
                     style="fill:url(#radialGradient5126);fill-rule:evenodd;stroke:#000000;stroke-width:4.20612621;stroke-miterlimit:4;stroke-opacity:1;stroke-dasharray:none"
                     d="M 646.24504,-322.65584 645.00075,-323.86834 C 636.52251,-332.95824 631.83159,-342.26257 630.88208,-351.85566 629.64475,-357.11426 629.98739,-361.83909 631.86213,-366.25431 624.30761,-366.57497 616.69869,-366.47531 609.16996,-365.97212 566.42827,-362.65508 529.06216,-346.94073 497.07005,-318.94895 454.77862,-281.23173 427.17238,-244.35119 414.02841,-208.16955 407.11343,-190.53128 404.71798,-176.68353 406.78136,-166.68543 414.64182,-146.42346 420.0264,-133.33694 422.84645,-127.33483 L 433.31903,-110.08912 C 433.89162,-129.29271 439.96367,-152.95897 451.53519,-181.08793 475.16618,-240.12451 513.02682,-281.00553 565.02768,-303.69984 593.26059,-315.59324 620.26236,-321.97091 646.24504,-322.65584 z"
                     id="path4067-6"
                     inkscape:connector-curvature="0"
                     inkscape:transform-center-y="83.689256"
                     inkscape:transform-center-x="16.128555" />
                <g
                     id="g4045"
                     transform="translate(0,-252)">
                    <path
                         id="path124"
                         style="fill:url(#linearGradient5128);fill-rule:evenodd;stroke:#000000;stroke-width:4.20612574;stroke-miterlimit:4;stroke-opacity:1;stroke-dasharray:none"
                         d="M 587.79306,-101.74562 C 585.01823,-99.769222 583.05063,-98.37561 581.66322,-97.691488 580.40195,-97.691488 578.71191,-98.071562 576.6434,-98.781027 L 582.74801,-102.83517 C 585.42193,-104.12742 590.44174,-108.86571 597.83286,-116.99932 603.93746,-123.02985 609.66361,-127.08399 614.9862,-129.16173 629.16301,-135.90175 647.60286,-138.56227 670.45713,-137.27001 706.80725,-132.53175 727.69393,-122.42173 733.11745,-106.78796 744.44372,-69.667254 731.04893,-49.092484 692.73136,-45.038352 656.35615,-40.984212 637.23507,-44.632935 635.1667,-56.111217 V -61.254915 C 640.59007,-61.96438 647.98118,-61.96438 657.44079,-61.254915 665.4373,-61.254915 671.23914,-65.33439 674.59415,-73.442672 675.88064,-78.079584 676.25911,-85.909151 675.57801,-96.703291 674.89692,-101.44155 673.91306,-104.81157 672.52564,-106.78796 671.13822,-112.23571 669.85173,-116.01114 668.48954,-117.98752 659.71116,-130.14993 641.2964,-130.14993 613.01861,-117.98752 608.95729,-116.01114 603.93746,-112.53977 597.83286,-107.87752 597.15176,-107.87752 596.54636,-107.49743 595.86526,-106.78796 592.51026,-104.81157 589.76065,-103.13924 587.79306,-101.74562 z"
                         inkscape:connector-curvature="0" />
                    <path
                         id="path144"
                         style="fill:url(#linearGradient5130);fill-rule:evenodd;stroke:#000000;stroke-width:4.20612574;stroke-miterlimit:4;stroke-opacity:1;stroke-dasharray:none"
                         d="M 597.83286,-107.87752 C 603.25637,-109.16977 609.66361,-108.86571 617.05472,-106.78796 621.67098,-106.20518 628.48192,-104.50752 637.23507,-101.74562 H 657.33988 C 661.37598,-102.42976 666.52195,-104.12742 672.52564,-106.78796 673.81213,-104.81157 674.89692,-101.44157 675.47709,-96.703291 676.15818,-85.909151 675.88064,-78.079584 674.49323,-73.442672 671.13822,-65.33439 665.4373,-61.254915 657.33988,-61.254915 647.98118,-61.96438 640.48929,-61.96438 635.1667,-61.254915 V -56.111217 L 633.09819,-57.200774 C 627.6999,-76.103197 611.22765,-89.279143 583.63081,-96.703291 584.33713,-98.071562 585.42193,-99.085094 586.70842,-99.769232 L 587.69213,-101.74562 C 589.76065,-103.13924 592.40933,-104.81157 595.76434,-106.78796 596.54636,-107.49745 597.15176,-107.87752 597.83286,-107.87752 z"
                         inkscape:connector-curvature="0" />
                    <path
                         id="path166"
                         style="fill:url(#linearGradient5132);fill-rule:evenodd;stroke:#000000;stroke-width:4.20612574;stroke-miterlimit:4;stroke-opacity:1;stroke-dasharray:none"
                         d="M 579.69563,-9.4886227 C 558.22878,-8.9058417 538.70415,-10.198089 521.17247,-13.568098 514.46246,-14.936369 508.7614,-16.329974 504.01898,-17.62224 495.94692,-21.068255 489.53954,-24.058183 484.79712,-26.820068 484.11602,-28.112315 483.53586,-29.100513 482.82953,-29.784652 478.11248,-34.548267 475.36283,-39.590606 474.75741,-45.038352 V -51.068888 C 476.04396,-65.334381 487.1684,-77.496803 508.05508,-87.581471 514.08399,-90.267341 520.49137,-93.029217 527.17617,-95.715087 530.53102,-97.083364 533.88604,-98.071562 537.34197,-98.781027 547.38174,-101.44155 557.14399,-102.42975 566.60361,-101.74562 569.25229,-100.45337 571.9262,-99.363808 574.57488,-98.781027 H 576.6434 C 578.61099,-98.071562 580.40195,-97.691471 581.66322,-97.691471 582.36954,-97.691471 583.05063,-97.387421 583.73173,-96.703282 611.32856,-89.279143 627.77559,-76.103197 633.09819,-57.200765 V -55.123029 C 635.1667,-47.014739 635.1667,-40.274745 633.09819,-34.826982 631.13061,-29.480594 627.39713,-25.147731 622.07454,-21.67638 613.29615,-14.252229 601.49049,-10.198089 586.70842,-9.4886227 H 579.69563 z"
                         inkscape:connector-curvature="0" />
                    <path
                         id="path210"
                         style="fill:url(#linearGradient5134);fill-rule:evenodd;stroke:#000000;stroke-width:4.20612574;stroke-miterlimit:4;stroke-opacity:1;stroke-dasharray:none"
                         d="M 574.67581,-98.781027 C 571.9262,-99.363817 569.25229,-100.45337 566.60361,-101.74562 557.14399,-102.42976 547.38174,-101.44155 537.34197,-98.781027 530.63195,-102.83517 524.52734,-107.49743 519.10396,-112.91985 515.16879,-116.99932 511.41008,-121.33219 508.05508,-126.09579 493.87842,-142.33769 488.25305,-156.17243 490.92696,-167.67607 493.57564,-177.17794 501.64784,-184.88081 515.16879,-190.93668 527.88234,-196.35909 539.99065,-198.05677 551.41785,-196.08037 577.62712,-192.60901 588.47416,-176.0884 583.73173,-146.39182 583.05063,-134.20407 579.9984,-118.3676 574.67581,-98.781027 z"
                         inkscape:connector-curvature="0" />
                    <path
                         id="path232"
                         style="fill:url(#linearGradient5136);fill-rule:evenodd;stroke:#000000;stroke-width:4.20612574;stroke-miterlimit:4;stroke-opacity:1;stroke-dasharray:none"
                         d="M 424.30633,-53.146642 C 426.27392,-50.486107 428.64512,-48.408362 431.39471,-47.014747 419.86663,-47.014747 410.50795,-47.39482 403.11686,-48.104304 391.00861,-50.080699 381.92741,-53.146642 375.82282,-57.200774 365.78306,-63.231301 360.05687,-72.733196 358.66946,-85.503735 356.70186,-97.083364 358.66946,-107.49745 364.79926,-116.99932 379.58143,-136.58589 409.52416,-140.64003 454.55175,-129.16173 482.1485,-122.42175 503.64065,-116.99932 519.10393,-112.91985 524.52741,-107.49745 530.63199,-102.83518 537.34199,-98.781045 533.98698,-98.071562 530.63199,-97.083364 527.17609,-95.715105 521.85349,-97.691488 516.43001,-100.07329 511.10741,-102.83518 509.74524,-103.41795 508.35784,-104.12742 507.07133,-104.81157 486.8909,-114.92158 470.04024,-117.98752 456.62025,-113.90804 449.83458,-112.64112 443.42728,-107.87752 437.42361,-99.769232 436.1371,-98.375629 434.74969,-96.703291 433.36229,-94.726889 431.39471,-91.255548 429.3262,-87.58148 427.35862,-83.527348 420.57294,-70.655451 419.58914,-60.570775 424.30633,-53.146642 z"
                         inkscape:connector-curvature="0" />
                    <path
                         id="path252"
                         style="fill:url(#linearGradient5138);fill-rule:evenodd;stroke:#000000;stroke-width:4.20612574;stroke-miterlimit:4;stroke-opacity:1;stroke-dasharray:none"
                         d="M 474.75741,-51.068888 C 457.22565,-47.014747 442.44349,-46.026558 430.31,-48.104304 L 424.30633,-53.146642 C 419.58914,-60.570775 420.57294,-70.655451 427.35862,-83.527348 429.3262,-87.58148 431.39471,-91.255548 433.36229,-94.726889 H 463.63295 C 471.02403,-94.726889 481.46734,-95.99381 494.96306,-98.781045 495.64415,-99.363817 496.93065,-99.769232 498.99915,-99.769232 503.03526,-101.06148 507.07136,-102.15104 511.10746,-102.83518 516.43006,-100.07329 521.85357,-97.691488 527.17617,-95.715105 520.49137,-93.029226 514.08399,-90.267341 508.05508,-87.58148 487.1684,-77.496803 476.14474,-65.33439 474.75741,-51.068888 z"
                         inkscape:connector-curvature="0" />
                </g>
            </g>
        </g>
    </g>
</svg>
